<?xml version="1.0" standalone="no"?>
<!DOCTYPE svg PUBLIC "-//W3C//DTD SVG 20010904//EN"
 "http://www.w3.org/TR/2001/REC-SVG-20010904/DTD/svg10.dtd">
<svg version="1.0" xmlns="http://www.w3.org/2000/svg"
 width="700.000000pt" height="700.000000pt" viewBox="0 0 700.000000 700.000000"
 preserveAspectRatio="xMidYMid meet">
<metadata>
Created by potrace 1.14, written by Peter Selinger 2001-2017
</metadata>
<g transform="translate(0.000000,700.000000) scale(0.100000,-0.100000)"
fill="#000000" stroke="none">
<path d="M2236 5524 c-22 -8 -54 -25 -72 -39 -18 -14 -436 -429 -930 -922
-702 -703 -901 -908 -917 -943 -31 -70 -29 -181 5 -246 39 -74 1816 -1852
1885 -1885 192 -93 417 49 416 262 -1 126 36 84 -836 957 l-792 792 792 793
c874 875 834 829 835 959 2 196 -202 340 -386 272z"/>
<path d="M4580 5529 c-50 -14 -109 -58 -147 -107 -67 -88 -75 -225 -18 -317
10 -16 372 -384 804 -817 l786 -788 -791 -792 c-436 -436 -798 -804 -805 -818
-16 -32 -38 -126 -35 -148 15 -81 20 -100 32 -124 25 -49 76 -99 128 -126 70
-37 188 -38 259 -4 71 35 1855 1821 1887 1889 40 85 34 193 -16 274 -13 20
-428 441 -923 937 -693 693 -911 905 -948 923 -54 26 -155 35 -213 18z"/>
</g>
</svg>
